<svg width="100" height="100" viewBox="0 0 100 100" fill="none" xmlns="http://www.w3.org/2000/svg">
<g clip-path="url(#clip0_2006_62)">
<path d="M77.9272 57.126H65.2012L70.1572 19.788H82.7992L77.9272 57.126ZM75.9952 78H61.6732L63.2692 65.946H77.5912L75.9952 78ZM48.6112 40.494L46.5112 57.126H51.7612V65.862H45.3352L43.7392 78H32.7772L34.3732 65.862H26.3932L24.7972 78H13.8352L15.3472 65.862H10.3492V57.126H16.5232L18.7072 40.494H13.4572V31.716H19.8832L21.3952 19.788H32.4412L30.8032 31.716H38.8252L40.4212 19.788H51.3832L49.7872 31.716H54.8692V40.494H48.6112ZM27.4852 57.126H35.4652L37.6492 40.494H29.6692L27.4852 57.126Z" fill="#FFFEE2"/>
</g>
<defs>
<clipPath id="clip0_2006_62">
<rect width="100" height="100" fill="white"/>
</clipPath>
</defs>
</svg>
