<svg width="100" height="100" viewBox="0 0 100 100" fill="none" xmlns="http://www.w3.org/2000/svg">
<g clip-path="url(#clip0_2005_3)">
<path d="M7 25C7 19.4772 11.4772 15 17 15H82C87.5229 15 92 19.4772 92 25L82 35H17L7 25ZM92 75C92 80.5228 87.5229 85 82 85H17C11.4772 85 7 80.5228 7 75H17H82H92ZM17 85C11.4772 85 7 80.5228 7 75V25C7 19.4772 11.4772 15 17 15V35V75V85ZM82 15C87.5229 15 92 19.4772 92 25V75C92 80.5228 87.5229 85 82 85V75V35V15Z" fill="#FFFEE2"/>
<path d="M41.052 45.88C43.124 45.88 44.916 46.3 46.428 47.14C47.968 47.98 49.34 48.96 50.544 50.08C51.776 51.2 52.952 52.18 54.072 53.02C55.22 53.86 56.424 54.28 57.684 54.28C59.28 54.28 60.638 53.72 61.758 52.6C62.906 51.452 64.04 49.814 65.16 47.686L72.594 51.046C71.418 53.65 70.116 55.946 68.688 57.934C67.288 59.922 65.664 61.49 63.816 62.638C61.996 63.758 59.84 64.318 57.348 64.318C55.332 64.318 53.554 63.898 52.014 63.058C50.502 62.218 49.13 61.238 47.898 60.118C46.666 58.998 45.476 58.018 44.328 57.178C43.18 56.338 41.976 55.918 40.716 55.918C39.092 55.918 37.706 56.506 36.558 57.682C35.438 58.858 34.332 60.454 33.24 62.47L25.806 59.152C26.954 56.8 28.228 54.616 29.628 52.6C31.028 50.584 32.652 48.96 34.5 47.728C36.348 46.496 38.532 45.88 41.052 45.88Z" fill="#FFFEE2"/>
</g>
<defs>
<clipPath id="clip0_2005_3">
<rect width="100" height="100" fill="white"/>
</clipPath>
</defs>
</svg>
